{"title":"Transformers Dark of the Moon [2011] 720p BRRip XviD AC3 - CODY","uid":6700164,"size":2928496485,"categoryP":"video","categoryS":"hd___movies","magnet":"?xt=urn:btih:0ed2e7a89f5a750b0550160458c7df59bf9b91ef&amp;dn=Transformers+Dark+of+the+Moon+%5B2011%5D+720p+BRRip+XviD+AC3+-+CODY&amp;tr=udp%3A%2F%2Ftracker.openbittorrent.com%3A80&amp;tr=udp%3A%2F%2Fopen.demonii.com%3A1337&amp;tr=udp%3A%2F%2Ftracker.coppersurfer.tk%3A6969&amp;tr=udp%3A%2F%2Fexodus.desync.com%3A6969","seeders":0,"leechers":1,"uploader":"CODYBOSS1969","files":4,"time":1316943155,"description":"General\nComplete name                    : Transformers Dark of the Moon [2011] 720p BRRip XviD AC3 - CODY.avi\nFormat                           : AVI\nFormat/Info                      : Audio Video Interleave\nFormat profile                   : OpenDML\nFile size                        : 2.73 GiB\nDuration                         : 2h 34mn\nOverall bit rate                 : 2 529 Kbps\nWriting application              : VirtualDubMod 1.5.10.2 (build 2540/release)\nWriting library                  : VirtualDubMod build 2540/release\n\nVideo\nID                               : 0\nFormat                           : MPEG-4 Visual\nFormat profile                   : Advanced Simple@L5\nFormat settings, BVOP            : 4\nFormat settings, QPel            : No\nFormat settings, GMC             : No warppoints\nFormat settings, Matrix          : Default (H.263)\nCodec ID                         : XVID\nCodec ID/Hint                    : XviD\nDuration                         : 2h 34mn\nBit rate                         : 2 070 Kbps\nWidth                            : 1 280 pixels\nHeight                           : 528 pixels\nDisplay aspect ratio             : 2.40:1\nFrame rate                       : 23.976 fps\nColor space                      : YUV\nChroma subsampling               : 4:2:0\nBit depth                        : 8 bits\nScan type                        : Progressive\nCompression mode                 : Lossy\nBits/(Pixel*Frame)               : 0.128\nStream size                      : 2.23 GiB (82%)\nWriting library                  : XviD 1.2.0.dev47 (UTC 2006-11-01)\n\nAudio\nID                               : 1\nFormat                           : AC-3\nFormat/Info                      : Audio Coding 3\nMode extension                   : CM (complete main)\nCodec ID                         : 2000\nDuration                         : 2h 34mn\nBit rate mode                    : Constant\nBit rate                         : 448 Kbps\nChannel(s)                       : 6 channels\nChannel positions                : Front: L C R, Side: L R, LFE\nSampling rate                    : 48.0 KHz\nBit depth                        : 16 bits\nCompression mode                 : Lossy\nStream size                      : 495 MiB (18%)\nAlignment                        : Split accross interleaves\nInterleave, duration             : 42 ms (1.00 video frame)\nInterleave, preload duration     : 500 ms\n\n\n\n\nIMDB link:                        &lt;a href=&quot; http://www.imdb.com/title/tt1399103/&quot; rel=&quot;nofollow&quot; target=&quot;_NEW&quot;&gt; http://www.imdb.com/title/tt1399103/&lt;/a&gt;\n\n\n\n\nSubtitles included               : Romanian\n\n\n\n\nPlese seed at least 1,5 :1. This way this torrent has a chance to survive !\n\n \n\n\nThanks. ENJOY !!\n","torrent":{"xt":"urn:btih:0ed2e7a89f5a750b0550160458c7df59bf9b91ef","amp;dn":"Transformers+Dark+of+the+Moon+%5B2011%5D+720p+BRRip+XviD+AC3+-+CODY","amp;tr":["udp%3A%2F%2Ftracker.openbittorrent.com%3A80","udp%3A%2F%2Fopen.demonii.com%3A1337","udp%3A%2F%2Ftracker.coppersurfer.tk%3A6969","udp%3A%2F%2Fexodus.desync.com%3A6969"],"infoHash":"0ed2e7a89f5a750b0550160458c7df59bf9b91ef","infoHashBuffer":{"type":"Buffer","data":[14,210,231,168,159,90,117,11,5,80,22,4,88,199,223,89,191,155,145,239]},"announce":[],"urlList":[]}}